<svg width="80" height="73" viewBox="0 0 80 73" fill="none" xmlns="http://www.w3.org/2000/svg">
<path d="M21.6255 1.00768C18.4284 0.905391 15.2819 1.8276 12.6419 3.64074C10.0019 5.45388 8.00545 8.06379 6.94182 11.0923C6.89193 11.2345 6.80491 11.3607 6.68984 11.4576C6.57478 11.5545 6.4359 11.6186 6.28771 11.6433C4.66681 11.9186 3.19707 12.7659 2.14308 14.0324C1.08909 15.299 0.520095 16.9018 0.53852 18.552C0.556944 20.2023 1.16158 21.7917 2.24358 23.0342C3.32558 24.2767 4.81387 25.0909 6.44051 25.3297C6.60263 25.3535 6.75427 25.4244 6.87669 25.5337C6.99912 25.643 7.08697 25.7858 7.12941 25.9447C7.92525 28.9208 9.6403 31.5671 12.0282 33.5033C14.416 35.4395 17.3538 36.5659 20.4193 36.7209C19.7502 39.1745 19.3446 41.693 19.2096 44.2333L14.1491 43.4302C13.0822 43.2608 11.992 43.5238 11.1183 44.1613C10.2446 44.7988 9.65892 45.7585 9.4901 46.8296C9.32128 47.9006 9.58315 48.995 10.2181 49.8722C10.8531 50.7494 11.8091 51.3373 12.8759 51.5068L19.7495 52.5969C19.9445 53.6657 20.1882 54.7249 20.4796 55.7714C18.9155 57.4792 18.0475 59.7146 18.0477 62.0346V63.4815C18.0475 63.7046 17.9592 63.9186 17.802 64.0763C17.6449 64.2341 17.4318 64.3227 17.2096 64.3229H16.7079C16.1132 64.3225 15.5241 64.44 14.9745 64.6682C14.4249 64.8965 13.9255 65.2312 13.5047 65.6533C13.084 66.0754 12.7503 66.5766 12.5225 67.1282C12.2948 67.6798 12.1775 68.2711 12.1775 68.8682V70.0537C12.1775 70.3888 12.2434 70.7206 12.3712 71.0302C12.4991 71.3397 12.6864 71.6208 12.9226 71.8576C13.1588 72.0944 13.4391 72.2822 13.7476 72.4102C14.0561 72.5382 14.3866 72.6038 14.7204 72.6035H46.923C51.252 72.604 55.5323 71.6861 59.4832 69.9097C63.4341 68.1333 66.9664 65.5386 69.8485 62.2957C74.4101 57.704 77.4586 51.8179 78.5824 45.4318C79.2725 39.885 77.7729 34.2873 74.4043 29.8364C71.7741 26.4476 68.2005 23.9195 64.1369 22.5725C61.3303 21.7241 58.3273 21.7963 55.5643 22.7788C52.8014 23.7613 50.4227 25.6028 48.7738 28.0356C48.4604 28.4967 48.2407 29.0152 48.1271 29.5616C48.0135 30.108 48.0083 30.6713 48.1118 31.2197C48.2153 31.7681 48.4255 32.2906 48.7303 32.7574C49.0351 33.2241 49.4286 33.6261 49.8883 33.94C50.3479 34.254 50.8647 34.4738 51.4091 34.5871C51.9534 34.7004 52.5147 34.7049 53.0608 34.6003C53.6069 34.4957 54.1271 34.2839 54.5916 33.9773C55.0562 33.6707 55.4559 33.2752 55.7681 32.8134C56.3951 31.8884 57.2958 31.1847 58.3429 30.8015C59.39 30.4183 60.5305 30.3751 61.6034 30.678C64.0105 31.5014 66.128 33.0083 67.6991 35.0159C69.6674 37.637 70.5667 40.9127 70.2136 44.1761C69.3435 48.8459 67.0661 53.1347 63.6892 56.463C60.4579 60.1776 56.0933 62.715 51.2756 63.6793C51.236 63.687 51.195 63.6847 51.1565 63.6725C51.118 63.6603 51.0831 63.6386 51.055 63.6095C51.027 63.5803 51.0066 63.5446 50.9958 63.5056C50.985 63.4665 50.9841 63.4253 50.9931 63.3858C52.4786 57.132 52.056 50.5742 49.7803 44.5647C48.6147 40.7952 46.6694 37.3154 44.0717 34.3527C41.4741 31.39 38.2826 29.0115 34.706 27.3725C34.8838 26.9048 35.0375 26.4281 35.1664 25.9445C35.2088 25.7856 35.2967 25.6428 35.4192 25.5335C35.5416 25.4242 35.6933 25.3533 35.8554 25.3295C37.482 25.0903 38.9701 24.276 40.0517 23.0332C41.1334 21.7904 41.7377 20.2007 41.7557 18.5504C41.7737 16.9001 41.2044 15.2977 40.1501 14.0314C39.0958 12.7651 37.6259 11.9181 36.005 11.6431C35.8568 11.6184 35.7179 11.5543 35.6029 11.4574C35.4878 11.3605 35.4008 11.2343 35.3509 11.0921C34.3417 8.21857 32.4913 5.71834 30.0422 3.9188C27.5931 2.11927 24.6589 1.10461 21.6255 1.00768ZM20.6825 2.11355C23.6461 2.01807 26.5631 2.87269 29.0103 4.55356C31.4575 6.23443 33.3078 8.65423 34.293 11.4619C34.4086 11.7905 34.6097 12.082 34.8754 12.3062C35.1412 12.5304 35.4619 12.6791 35.8042 12.7368C37.165 12.9681 38.3988 13.6794 39.2838 14.7425C40.1688 15.8057 40.6468 17.151 40.6319 18.5364C40.617 19.9218 40.1102 21.2565 39.2026 22.3002C38.2949 23.344 37.0461 24.0284 35.6807 24.2302C35.305 24.2852 34.9536 24.4494 34.6698 24.7026C34.386 24.9558 34.1823 25.2868 34.0838 25.6549C33.664 27.2271 32.9637 28.7098 32.0169 30.0311C32.1451 27.4422 31.252 24.9069 29.531 22.9745C29.5115 22.948 29.4975 22.9177 29.4899 22.8856C29.4823 22.8535 29.4813 22.8203 29.4869 22.7878C29.4925 22.7554 29.5047 22.7243 29.5226 22.6967C29.5405 22.669 29.5638 22.6454 29.5912 22.6271C30.9577 21.4524 31.8346 19.8048 32.0476 18.0114C32.2607 16.2179 31.7944 14.4095 30.7413 12.9451C29.6882 11.4806 28.1253 10.4673 26.3626 10.1058C24.5999 9.74425 22.7662 10.0611 21.2254 10.9935C21.0021 11.1284 20.7463 11.1997 20.4856 11.1997C20.225 11.1997 19.9692 11.1284 19.7459 10.9935H19.7296C18.1888 10.0648 16.3568 9.75074 14.5964 10.1136C12.836 10.4765 11.2755 11.4899 10.2238 12.9529C9.17217 14.4159 8.70607 16.222 8.9178 18.0136C9.12953 19.8052 10.0037 21.4517 11.3671 22.6271C11.3901 22.6497 11.4084 22.6767 11.4208 22.7065C11.4333 22.7364 11.4397 22.7685 11.4397 22.8008C11.4397 22.8331 11.4333 22.865 11.4208 22.8949C11.4084 22.9247 11.3901 22.9519 11.3671 22.9745C10.1303 24.3661 9.31232 26.0814 9.00816 27.9212C8.66384 27.1923 8.38546 26.4338 8.17638 25.6549C8.07809 25.2873 7.87486 24.9566 7.5917 24.7034C7.30854 24.4503 6.95783 24.2858 6.58273 24.2302C5.21734 24.0284 3.9685 23.344 3.06086 22.3002C2.15323 21.2565 1.64638 19.9218 1.63149 18.5364C1.61659 17.151 2.09464 15.8057 2.97963 14.7425C3.86462 13.6794 5.09846 12.9681 6.45919 12.7368C6.80094 12.6785 7.12097 12.5298 7.38612 12.3056C7.65126 12.0814 7.85188 11.7901 7.96718 11.4619C8.90156 8.79894 10.6156 6.48146 12.8845 4.8133C15.1535 3.14515 17.8716 2.2041 20.6825 2.11355ZM15.8154 11.0698C15.9709 11.0638 16.1266 11.0638 16.2821 11.0698C17.2973 11.1137 18.2853 11.413 19.1553 11.9401C19.5507 12.1789 20.0035 12.305 20.4649 12.305C20.9264 12.305 21.3791 12.1789 21.7745 11.9401C23.078 11.1551 24.6276 10.89 26.1165 11.1975C27.6054 11.5049 28.925 12.3623 29.8141 13.6C30.7033 14.8377 31.097 16.3655 30.9176 17.8809C30.7381 19.3962 29.9984 20.7887 28.8449 21.7826C28.7094 21.9003 28.5986 22.0438 28.519 22.205C28.4394 22.3661 28.3927 22.5418 28.3815 22.7214C28.3703 22.9009 28.3949 23.0808 28.4538 23.2507C28.5127 23.4206 28.6048 23.577 28.7246 23.7107C29.6682 24.7702 30.3403 26.0445 30.6827 27.4235C31.0252 28.8025 31.0276 30.2446 30.6899 31.6247C29.2914 33.0463 27.5952 34.1377 25.7245 34.8195C23.8538 35.5013 21.8553 35.7566 19.8741 35.5668C17.8929 35.377 15.9786 34.7468 14.2701 33.7221C12.5616 32.6974 11.1016 31.3037 9.99617 29.6423C9.97032 27.4565 10.761 25.3403 12.2122 23.7107C12.3315 23.5764 12.4229 23.4195 12.481 23.2493C12.5391 23.079 12.5628 22.8987 12.5507 22.7191C12.5386 22.5395 12.4909 22.3643 12.4105 22.2035C12.33 22.0427 12.2184 21.8996 12.0822 21.7826C11.1527 20.9856 10.4848 19.9251 10.1661 18.7404C9.84728 17.5557 9.8925 16.3019 10.2958 15.1434C10.6991 13.985 11.4416 12.9758 12.4261 12.2484C13.4105 11.5209 14.591 11.109 15.8126 11.0668L15.8154 11.0698ZM60.0601 23.0955C61.3296 23.0845 62.5935 23.265 63.8095 23.6311C67.6555 24.9112 71.0373 27.3068 73.5277 30.5156C76.7139 34.7258 78.1368 40.0187 77.4931 45.2665C76.4019 51.4294 73.4531 57.1077 69.0448 61.5344C66.2665 64.6672 62.8592 67.1742 59.047 68.8909C55.2348 70.6075 51.1039 71.4949 46.9257 71.4947H14.7233C14.5346 71.4951 14.3477 71.4582 14.1732 71.386C13.9987 71.3138 13.8401 71.2076 13.7065 71.0738C13.5729 70.94 13.4669 70.7812 13.3946 70.6062C13.3223 70.4312 13.2851 70.2434 13.2851 70.054V68.8684C13.2851 68.4169 13.3737 67.9699 13.5459 67.5528C13.7181 67.1357 13.9705 66.757 14.2886 66.4379C14.6068 66.1188 14.9844 65.8657 15.4 65.6932C15.8156 65.5207 16.261 65.4321 16.7107 65.4325H17.2123C17.4677 65.4327 17.7207 65.3826 17.9567 65.2847C18.1928 65.1868 18.4073 65.0433 18.588 64.8621C18.7688 64.681 18.9122 64.4658 19.0101 64.229C19.108 63.9922 19.1584 63.7383 19.1586 63.4819V62.035C19.208 59.9089 20.0839 57.8866 21.5992 56.4004C23.1144 54.9143 25.1487 54.0823 27.2671 54.0823C29.3854 54.0823 31.4197 54.9143 32.935 56.4004C34.4503 57.8866 35.3262 59.9089 35.3756 62.035V64.5114C35.3799 64.6556 35.4399 64.7925 35.5431 64.893C35.6462 64.9935 35.7843 65.0496 35.928 65.0496C36.0718 65.0496 36.2098 64.9935 36.313 64.893C36.4161 64.7925 36.4762 64.6556 36.4805 64.5114V62.035C36.4809 60.4145 36.0574 58.8221 35.2523 57.4176C34.4472 56.013 33.2888 54.8455 31.8929 54.0316C32.743 53.8303 33.5441 53.4595 34.2485 52.9412C34.953 52.4229 35.5465 51.7677 35.9937 51.0145C36.4409 50.2614 36.7327 49.4256 36.8518 48.557C36.9709 47.6884 36.9148 46.8046 36.6869 45.9581C36.0965 43.7654 35.2793 41.6405 34.2486 39.6184C34.1816 39.4874 34.0655 39.3885 33.9259 39.3434C33.7862 39.2984 33.6344 39.3108 33.5039 39.378C33.3734 39.4453 33.2749 39.5618 33.2299 39.702C33.185 39.8422 33.1974 39.9947 33.2644 40.1258C34.259 42.0788 35.0475 44.1307 35.617 46.2483C35.8524 47.1227 35.8662 48.0424 35.6573 48.9236C35.4483 49.8047 35.0231 50.6195 34.4204 51.2936C33.8178 51.9677 33.0567 52.4797 32.2066 52.7831C31.3565 53.0866 30.4443 53.1718 29.553 53.0309L13.0533 50.411C12.2784 50.2851 11.5849 49.8558 11.1245 49.2175C10.6642 48.5792 10.4746 47.7839 10.5972 47.0055C10.7198 46.2272 11.1447 45.5293 11.7788 45.0648C12.4129 44.6003 13.2046 44.407 13.9803 44.5272L26.683 46.5449C26.8271 46.5663 26.9739 46.5297 27.0913 46.443C27.2088 46.3563 27.2873 46.2266 27.3099 46.082C27.3325 45.9375 27.2974 45.7898 27.2121 45.6712C27.1268 45.5525 26.9982 45.4725 26.8544 45.4485L20.3111 44.4095C20.4398 41.8119 20.8605 39.2371 21.5652 36.7343C24.244 36.6572 26.8493 35.8371 29.0925 34.3648C31.3356 32.8926 33.129 30.8257 34.274 28.3932C37.7086 29.971 40.7726 32.2594 43.2652 35.1085C45.7579 37.9575 47.623 41.3029 48.7385 44.9257C50.9456 50.7362 51.3572 57.0795 49.9196 63.1283C49.867 63.3491 49.8706 63.5797 49.9301 63.7986C49.9895 64.0176 50.1029 64.2181 50.2597 64.3815C50.4166 64.545 50.6119 64.6663 50.8276 64.7341C51.0434 64.8019 51.2727 64.8142 51.4944 64.7697C56.5381 63.7603 61.109 61.1086 64.4986 57.2256C68.0293 53.7315 70.4064 49.2332 71.3085 44.3391C71.7052 40.7784 70.7281 37.2006 68.5781 34.3408C66.868 32.1508 64.5587 30.5091 61.9332 29.617C60.6345 29.2446 59.2519 29.2929 57.9821 29.7547C56.7122 30.2164 55.6196 31.0684 54.8597 32.1893C54.6288 32.5301 54.3332 32.8217 53.9899 33.0478C53.6466 33.2739 53.2624 33.43 52.859 33.507C52.4557 33.584 52.0412 33.5803 51.6393 33.4965C51.2373 33.4126 50.8557 33.2501 50.5163 33.0182C50.1769 32.7863 49.8863 32.4895 49.6612 32.1449C49.436 31.8002 49.2807 31.4145 49.2041 31.0096C49.1274 30.6046 49.131 30.1885 49.2146 29.7849C49.2981 29.3814 49.46 28.9983 49.6911 28.6576C50.8433 26.9586 52.3884 25.5652 54.1942 24.5966C56 23.628 58.0128 23.1127 60.0601 23.0955ZM20.9143 52.7819L24.213 53.3047C23.1876 53.6671 22.2341 54.2088 21.3968 54.9047C21.2148 54.2024 21.0549 53.4944 20.9174 52.7819H20.9143Z" fill="#333B41" stroke="#333B41" stroke-width="0.7"/>
</svg>
