<svg width="47" height="34" viewBox="0 0 47 34" fill="none" xmlns="http://www.w3.org/2000/svg">
<path d="M45.3982 11.0545C45.218 10.7136 45.0378 10.4296 44.9177 10.0887C44.0768 8.15724 44.0768 6.68021 44.3771 4.80553C44.6174 3.44212 44.5573 2.76042 44.1368 2.24914C43.6563 1.68105 42.9355 1.62425 41.9144 1.51063H41.7342C41.4338 1.45382 41.1335 1.45382 40.8932 1.45382C38.5506 1.3402 37.2292 1.39701 36.6285 2.24914C36.0278 3.04446 36.4483 4.23744 37.2892 5.9417C37.7097 6.79383 37.8899 7.64596 38.01 8.27085C36.9889 8.32766 35.7876 8.78213 34.346 9.35022C31.4027 10.4864 27.3782 12.077 22.4528 10.6568C16.6263 9.00937 11.7609 4.6351 9.11797 2.24914C7.85657 1.11297 7.31597 0.60169 6.8955 0.488073C6.29484 0.317647 5.51397 0.715307 5.0935 0.942542L4.85324 1.05616C4.55291 1.28339 4.13244 1.62425 3.95224 2.02191C3.53177 3.3285 3.47171 5.77128 4.49284 8.49809C4.13244 8.32766 3.89217 8.27086 3.65191 8.21405C3.05124 8.15724 2.39051 8.61171 1.84991 9.12298L1.66971 9.29341C1.36937 9.57745 1.00897 10.0319 1.00897 10.4864C0.888839 12.5883 1.97004 15.8832 4.55291 18.9509H4.49284C3.89217 19.0645 3.35157 19.7462 2.99117 20.3711V20.5983C2.81097 20.996 2.63077 21.5073 2.69084 21.9617C3.29151 24.2909 5.75424 27.6426 9.89884 29.9718C12.4216 31.392 16.2659 32.7554 21.5518 32.7554C23.8944 32.7554 26.5373 32.4713 29.4205 31.7896C36.2681 30.199 42.6352 25.5975 45.218 20.2007C46.8398 17.0194 46.8999 13.8381 45.3982 11.0545ZM5.03344 2.30595C5.03344 2.30595 5.0935 2.24914 5.0935 2.19233C5.21364 2.41957 5.39384 2.70361 5.57404 2.98765C7.13577 5.65766 10.5596 11.6794 18.6085 14.6902C13.623 13.4972 9.17804 11.0545 6.5351 9.57745C6.3549 9.46384 6.17471 9.35022 5.9945 9.29341C4.73311 6.50979 4.5529 3.78297 5.03344 2.30595ZM2.15024 10.6C2.15024 10.6 2.15024 10.4864 2.27037 10.3728C2.45057 10.5432 2.75091 10.8841 3.05124 11.1681C5.57404 13.8381 11.5206 20.1439 22.3927 20.7688C22.7531 20.7688 23.0534 20.7688 23.4138 20.7688C24.495 20.7688 25.6363 20.6551 26.6574 20.4279C26.5373 20.4847 26.3571 20.4847 26.237 20.5415C19.4494 22.0754 11.9411 20.3711 7.91664 19.4622C7.25591 19.2917 6.7153 19.1781 6.29484 19.1213C3.23144 16.1104 2.03011 12.5883 2.15024 10.6ZM44.257 19.8598C41.7942 24.9158 35.7876 29.3469 29.2403 30.8239C12.5418 34.6301 4.73311 25.4839 3.77204 21.7345C3.77204 21.6777 3.77204 21.6209 3.8321 21.4505C4.13244 21.5641 4.49284 21.7913 4.85324 22.0185C8.27704 24.0068 16.2659 28.6083 27.3782 26.052C34.7064 24.4045 38.4305 19.0645 40.5929 15.1447C40.713 14.9175 40.653 14.5766 40.3526 14.463C40.1124 14.3494 39.752 14.4062 39.6318 14.6902C37.5896 18.3828 33.9856 23.4956 27.0779 25.0862C16.386 27.529 8.6975 23.0411 5.39384 21.1664C4.91331 20.8824 4.55291 20.6551 4.25257 20.5415C4.49284 20.2007 4.73311 19.9734 4.85324 19.9734C5.15357 19.9166 6.41497 20.2007 7.61631 20.4847C10.4995 21.1664 15.1847 22.189 20.1702 22.189C22.2125 22.189 24.3749 22.0185 26.4172 21.5073C31.703 20.3143 34.8265 17.3034 37.3493 14.2358C37.5295 14.0085 37.4694 13.6677 37.2292 13.4972C36.9889 13.3268 36.6285 13.3836 36.4483 13.6109C36.208 13.8949 35.9077 14.2358 35.6674 14.5198C31.4027 18.2692 27.0178 19.9734 22.3326 19.6894C11.9411 19.1213 6.17471 13.0428 3.71197 10.4296C3.35157 10.0319 3.11131 9.80469 2.87104 9.57745C3.17137 9.35022 3.41164 9.2366 3.53177 9.2366C3.8321 9.29341 4.85324 9.8615 5.87437 10.4296C9.35824 12.3611 15.8454 15.94 22.693 16.3377C23.0534 16.3377 23.3538 16.3377 23.7142 16.3377C26.1168 16.3377 28.1591 15.8832 29.9611 15.1447H30.0212C30.0812 15.1447 30.0812 15.0879 30.1413 15.0879C32.4238 14.179 34.2258 12.9292 35.7876 11.9066C36.3282 11.5658 36.8087 11.2249 37.2292 10.9409C37.4694 10.7704 37.5295 10.4864 37.4094 10.2592C37.2292 10.0319 36.9288 9.97511 36.6886 10.0887C36.208 10.3728 35.7275 10.7136 35.1869 11.0545C33.6252 12.077 31.8232 13.3268 29.5406 14.179C26.5974 15.0311 23.7142 15.0879 20.9511 14.2926C11.821 11.7362 8.09684 5.20319 6.47504 2.41957C6.23477 2.02191 6.11464 1.73786 5.93444 1.51063C6.23477 1.39701 6.41497 1.3402 6.5351 1.3402C6.77537 1.45382 7.55624 2.13552 8.3371 2.87404C10.98 5.26 15.9656 9.74788 22.0323 11.4521C23.534 11.8498 24.9756 12.0202 26.297 12.0202C29.6608 12.0202 32.4238 10.9409 34.6463 10.0887C36.208 9.46384 37.5295 8.95256 38.4305 9.12298H38.4906H38.5506C38.5506 9.12298 38.5506 9.12298 38.6107 9.12298C38.6708 9.12298 38.6708 9.12299 38.7308 9.06618C38.7308 9.06618 38.7909 9.06618 38.7909 9.00937C38.851 9.00937 38.851 8.95256 38.911 8.95256L38.9711 8.89575C38.9711 8.89575 39.0312 8.83894 39.0312 8.78213C39.0312 8.72533 39.0312 8.72532 39.0912 8.66852C39.0912 8.66852 39.0912 8.66852 39.0912 8.61171V8.5549V8.49809C39.0312 7.81639 38.851 6.45298 38.2503 5.20319C37.95 4.57829 37.1691 2.98765 37.5295 2.53318C37.8298 2.07871 39.4516 2.13552 40.8932 2.19233C41.1335 2.19233 41.3738 2.19233 41.614 2.24914H41.7942C42.5751 2.30595 43.1157 2.41957 43.2959 2.58999C43.4761 2.81723 43.4761 3.38531 43.356 4.35106C42.9956 6.33936 42.9956 8.04362 43.9566 10.2023C44.0768 10.5432 44.257 10.8841 44.4372 11.2249C45.7586 14.0085 45.6986 16.849 44.257 19.8598Z" fill="#333B41" stroke="#333B41" stroke-width="0.7"/>
</svg>
